# xmcd
#
# Track frame offsets:
#	150
#	11231
#	24873
#	33119
#	46423
#	59665
#	68795
#	80669
#	91262
#	100754
#	111961
#	122558
#	131491
#	142957
#	154494
#	166578
#	179657
#	191487
#	202165
#	213870
#	225270
#	237026
#	247842
#	257978
#	269951
#
# Disc length: 3759 seconds
#
# Revision: 1
# Processed by: cddbd v1.5.2PL0 Copyright (c) Steve Scherf et al.
# Submitted via: audiograbber 1.83.01
#
DISCID=5c0ead19
DTITLE=Various Artist - Quicksand - The Groove Records Story  [CD2)
DYEAR=2014
DGENRE=Oldies
TTITLE0=Rebecca Lea - The Devil Hates You 
TTITLE1='Little' George Benson - She Makes Me Mad 
TTITLE2=Ernestine Washington and The Milleraires - Holding On - Part 2 
TTITLE3=Mickey and Sylvia - No Good Lover 
TTITLE4=Sycamores - I'll Be Waiting 
TTITLE5=Arthur 'Big Boy' Crudup - She's Got No Hair 
TTITLE6=Du Droppers - Boot 'Em Up 
TTITLE7=King Curtis - Rockabye Baby 
TTITLE8=Larry Dale and Mickey Baker's Orchestra - You Better Heed My Warning 
TTITLE9=Varetta Dillard - One More Time 
TTITLE10=Big Al Sears - Rock And Roll Ball 
TTITLE11=Piano Red - Jump, Man, Jump 
TTITLE12=Roy Gaines - Right Now Baby 
TTITLE13=Sonny Terry - Ride And Roll 
TTITLE14=Big John Greer - Soon, Soon, Soon 
TTITLE15=Coronets - I Love You More 
TTITLE16=Avalons - Chains Around My Heart 
TTITLE17=Big Connie - Mumbles Blues 
TTITLE18=Bonnie Davis - How Could You 
TTITLE19=Four Students - So Near And Yet So Far 
TTITLE20=Mr. Bear and His Bearcats - Radar 
TTITLE21=Nitecaps - A Kiss And A Vow 
TTITLE22=Sam 'Highpockets' Henderson - Too Bad Sweet Mama 
TTITLE23=Five Keys - Lawdy Miss Mary 
TTITLE24=Sam Butera - I Don't Want To Set The World On Fire 
EXTD=
EXTT0=
EXTT1=
EXTT2=
EXTT3=
EXTT4=
EXTT5=
EXTT6=
EXTT7=
EXTT8=
EXTT9=
EXTT10=
EXTT11=
EXTT12=
EXTT13=
EXTT14=
EXTT15=
EXTT16=
EXTT17=
EXTT18=
EXTT19=
EXTT20=
EXTT21=
EXTT22=
EXTT23=
EXTT24=
PLAYORDER=
